<svg width="1146" height="771" viewBox="0 0 1146 771" fill="none" xmlns="http://www.w3.org/2000/svg">
<rect width="1146" height="771" fill="#E5E5E5"/>
<g clip-path="url(#clip0)">
<path opacity="0.1" d="M771.85 770.58C850.274 770.58 913.85 766.103 913.85 760.58C913.85 755.057 850.274 750.58 771.85 750.58C693.426 750.58 629.85 755.057 629.85 760.58C629.85 766.103 693.426 770.58 771.85 770.58Z" fill="#45759A"/>
<path opacity="0.1" d="M1145.7 454.1C1145.68 492.877 1137.24 531.188 1120.97 566.389C1104.71 601.589 1081 632.841 1051.48 657.989C1021.96 683.136 987.339 701.58 950.001 712.048C912.663 722.516 873.499 724.758 835.21 718.62H410.5C394.096 720.871 377.558 722 361 722C349.113 722 337.37 721.433 325.77 720.3C236.517 711.634 153.695 670.026 93.4622 603.594C33.2297 537.162 -0.0914702 450.672 4.73649e-06 361C4.73649e-06 161.62 161.63 0 361 0C521.57 0 657.63 104.84 704.52 249.8C752.888 208.65 814.346 186.1 877.85 186.2C1025.76 186.2 1145.7 306.14 1145.7 454.1Z" fill="white"/>
<path opacity="0.1" d="M1042.79 665.17C1013.72 687.867 980.285 704.328 944.569 713.525C908.854 722.721 871.626 724.456 835.21 718.62H410.5C394.096 720.871 377.558 722 361 722C349.113 722 337.37 721.433 325.77 720.3C255.433 713.401 188.666 686.018 133.741 641.543C78.8151 597.067 38.1453 537.454 16.77 470.09C51.35 396.2 140.19 343.62 244.35 343.62C345.85 343.62 432.85 393.56 469.16 464.49C487.04 461.239 505.177 459.609 523.35 459.62C628.55 459.62 718.12 513.29 751.94 588.29C779.955 579.798 809.076 575.515 838.35 575.58C924.15 575.62 999.56 611.29 1042.79 665.17Z" fill="#E2EEEF"/>
<path d="M351.7 673.23C351.7 698.85 341.87 712.76 325.77 720.3C265.125 714.444 206.967 693.252 156.77 658.72C158.057 650.01 160.523 641.515 164.1 633.47L209.89 647.71L169.11 623.71C174.625 614.295 181.672 605.866 189.96 598.77L266.89 622.69L206.62 587.29C219.031 580.489 232.767 576.457 246.884 575.47C261.002 574.483 275.165 576.566 288.401 581.575C301.637 586.583 313.631 594.399 323.558 604.485C333.486 614.571 341.111 626.687 345.91 640L346.12 640.6C346.28 641.05 346.44 641.5 346.59 641.96C347.13 643.553 347.627 645.163 348.08 646.79C348.25 647.37 348.41 647.95 348.55 648.54C348.69 649.13 348.84 649.66 348.97 650.22C349.1 650.78 349.21 651.22 349.31 651.68C349.38 651.98 349.45 652.28 349.51 652.58C349.62 653.06 349.72 653.58 349.81 654.03C349.95 654.73 350.09 655.44 350.21 656.14C350.33 656.84 350.46 657.6 350.57 658.33C350.68 659.06 350.81 659.95 350.91 660.77C351.01 661.59 351.09 662.23 351.16 662.96C351.16 663.19 351.21 663.41 351.23 663.64C351.3 664.28 351.35 664.92 351.4 665.56C351.405 665.643 351.405 665.727 351.4 665.81C351.46 666.61 351.51 667.41 351.55 668.21C351.59 669.01 351.62 669.79 351.64 670.55C351.645 670.627 351.645 670.703 351.64 670.78C351.69 671.58 351.7 672.4 351.7 673.23Z" fill="#45759A"/>
<path opacity="0.1" d="M351.7 673.23C351.7 698.85 341.87 712.76 325.77 720.3C286.552 716.523 248.224 706.306 212.33 690.06L213.97 688.97C221.38 684.06 229.04 679.04 237.76 677.37C245.43 675.9 253.34 677.14 261.13 676.7C274.691 675.87 287.457 670.02 296.94 660.29C302.51 654.53 306.94 647.46 313.59 643.06C320.81 638.32 329.97 637.3 338.53 638.48C341.017 638.843 343.481 639.347 345.91 639.99L346.12 640.59C346.28 641.04 346.44 641.49 346.59 641.95C347.13 643.543 347.627 645.153 348.08 646.78C348.25 647.36 348.41 647.94 348.55 648.53C348.69 649.12 348.84 649.65 348.97 650.21C349.1 650.77 349.21 651.21 349.31 651.67C349.38 651.97 349.45 652.27 349.51 652.57C349.62 653.05 349.72 653.57 349.81 654.02C349.95 654.72 350.09 655.43 350.21 656.13C350.33 656.83 350.46 657.59 350.57 658.32C350.68 659.05 350.81 659.94 350.91 660.76C351.01 661.58 351.09 662.22 351.16 662.95C351.16 663.18 351.21 663.4 351.23 663.63C351.3 664.27 351.35 664.91 351.4 665.55C351.405 665.633 351.405 665.717 351.4 665.8C351.46 666.6 351.51 667.4 351.55 668.2C351.59 669 351.62 669.78 351.64 670.54C351.645 670.617 351.645 670.693 351.64 670.77C351.69 671.58 351.7 672.4 351.7 673.23Z" fill="black"/>
<path d="M935.5 689.86C935.507 692.468 935.239 695.069 934.7 697.62C934.6 698.1 934.49 698.57 934.38 699.03C931.54 710.42 923.53 718.75 913.97 719.28C913.65 719.28 913.33 719.28 912.97 719.28C902.86 719.28 894.31 710.56 891.49 698.55C891.41 698.23 891.34 697.91 891.27 697.55C890.731 694.999 890.462 692.398 890.47 689.79C890.47 673.52 900.54 660.34 912.97 660.34C925.4 660.34 935.5 673.59 935.5 689.86Z" fill="#3F3D56"/>
<path opacity="0.1" d="M935.5 689.86C935.507 692.468 935.239 695.069 934.7 697.62C934.6 698.1 934.49 698.57 934.38 699.03C934.04 699.03 933.71 699.03 933.38 699.03C930.904 698.897 928.442 698.562 926.02 698.03C923.874 698.693 921.681 699.195 919.46 699.53C917.757 699.786 916.041 699.947 914.32 700.01C913.74 700.01 913.16 700.01 912.58 700.01C910.52 700.01 908.462 699.873 906.42 699.6C903.118 699.159 899.875 698.354 896.75 697.2C895.039 697.77 893.296 698.237 891.53 698.6C891.45 698.28 891.38 697.96 891.31 697.6C890.771 695.049 890.502 692.448 890.51 689.84C890.51 673.57 900.58 660.39 913.01 660.39C925.44 660.39 935.5 673.59 935.5 689.86Z" fill="black"/>
<path d="M983.5 635C983.51 627.84 981.831 620.779 978.6 614.39L952.14 622.62L975.37 608.97C971.475 603.34 966.366 598.657 960.419 595.266C954.471 591.875 947.839 589.864 941.01 589.38C939.923 587.731 938.731 586.154 937.44 584.66L899.44 596.49L930.61 578.16C924.647 573.584 917.649 570.548 910.233 569.321C902.818 568.094 895.215 568.713 888.096 571.125C880.977 573.536 874.562 577.665 869.419 583.147C864.276 588.628 860.564 595.292 858.61 602.55L891.16 640.02L855.85 614.48C846.905 620.824 840.538 630.17 837.907 640.816C835.277 651.462 836.558 662.698 841.518 672.478C846.479 682.258 854.787 689.931 864.931 694.098C875.074 698.265 886.377 698.649 896.78 695.18C906.19 698.639 916.473 698.924 926.06 695.99C932.743 697.453 939.669 697.4 946.329 695.834C952.989 694.268 959.213 691.229 964.544 686.941C969.875 682.653 974.177 677.224 977.134 671.055C980.09 664.885 981.627 658.131 981.63 651.29C981.63 650.29 981.63 649.29 981.53 648.29C982.839 643.981 983.503 639.503 983.5 635Z" fill="#45759A"/>
<path opacity="0.1" d="M982.71 643.48C968.736 640.831 954.407 640.649 940.37 642.94C924.48 645.57 908.24 651.35 892.7 647.13C883.58 644.65 875.7 638.91 866.79 635.72C858.193 632.721 848.933 632.167 840.04 634.12C836.651 642.227 835.668 651.138 837.208 659.789C838.748 668.439 842.746 676.464 848.725 682.903C854.703 689.342 862.409 693.924 870.922 696.101C879.435 698.278 888.394 697.959 896.73 695.18C906.14 698.639 916.423 698.924 926.01 695.99C932.697 697.462 939.628 697.415 946.294 695.853C952.961 694.291 959.191 691.253 964.528 686.964C969.865 682.675 974.172 677.244 977.132 671.07C980.091 664.896 981.628 658.137 981.63 651.29C981.63 650.29 981.63 649.29 981.53 648.29C982.011 646.709 982.405 645.104 982.71 643.48Z" fill="black"/>
<path d="M713.52 250.42H709.24C707.975 250.42 706.95 251.445 706.95 252.71V321.15C706.95 322.415 707.975 323.44 709.24 323.44H713.52C714.785 323.44 715.81 322.415 715.81 321.15V252.71C715.81 251.445 714.785 250.42 713.52 250.42Z" fill="#3A3768"/>
<path d="M415.19 193.21H414.8C413.535 193.21 412.51 194.235 412.51 195.5V214.96C412.51 216.225 413.535 217.25 414.8 217.25H415.19C416.455 217.25 417.48 216.225 417.48 214.96V195.5C417.48 194.235 416.455 193.21 415.19 193.21Z" fill="#3A3768"/>
<path d="M415.64 237.23H414.62C413.355 237.23 412.33 238.255 412.33 239.52V276.78C412.33 278.045 413.355 279.07 414.62 279.07H415.64C416.905 279.07 417.93 278.045 417.93 276.78V239.52C417.93 238.255 416.905 237.23 415.64 237.23Z" fill="#3A3768"/>
<path d="M415.46 293.71H414.71C413.445 293.71 412.42 294.735 412.42 296V333.62C412.42 334.885 413.445 335.91 414.71 335.91H415.46C416.725 335.91 417.75 334.885 417.75 333.62V296C417.75 294.735 416.725 293.71 415.46 293.71Z" fill="#3A3768"/>
<path d="M672.74 113.77H454.32C432.786 113.77 415.33 131.226 415.33 152.76V677.17C415.33 698.704 432.786 716.16 454.32 716.16H672.74C694.274 716.16 711.73 698.704 711.73 677.17V152.76C711.73 131.226 694.274 113.77 672.74 113.77Z" fill="#3F3D56"/>
<path d="M572.46 131.76H538.81C536.673 131.76 534.94 133.493 534.94 135.63V136.29C534.94 138.427 536.673 140.16 538.81 140.16H572.46C574.597 140.16 576.33 138.427 576.33 136.29V135.63C576.33 133.493 574.597 131.76 572.46 131.76Z" fill="#E6E8EC"/>
<path d="M587.35 140.73C589.984 140.73 592.12 138.594 592.12 135.96C592.12 133.326 589.984 131.19 587.35 131.19C584.716 131.19 582.58 133.326 582.58 135.96C582.58 138.594 584.716 140.73 587.35 140.73Z" fill="#E6E8EC"/>
<path d="M669.85 129.46H635.95V133.55C635.95 138.69 633.908 143.619 630.274 147.254C626.639 150.888 621.71 152.93 616.57 152.93H508.39C503.25 152.93 498.321 150.888 494.686 147.254C491.052 143.619 489.01 138.69 489.01 133.55V129.46H457.17C454.079 129.46 451.019 130.069 448.163 131.252C445.308 132.435 442.713 134.169 440.528 136.355C438.343 138.541 436.61 141.136 435.428 143.992C434.246 146.848 433.639 149.909 433.64 153V676.93C433.639 680.021 434.246 683.082 435.428 685.938C436.61 688.794 438.343 691.389 440.528 693.575C442.713 695.761 445.308 697.495 448.163 698.678C451.019 699.861 454.079 700.47 457.17 700.47H669.85C676.093 700.47 682.081 697.99 686.495 693.575C690.91 689.161 693.39 683.173 693.39 676.93V153C693.39 146.757 690.91 140.769 686.495 136.355C682.081 131.94 676.093 129.46 669.85 129.46Z" fill="#45759A"/>
<path opacity="0.1" d="M593.53 223.47H444.53V247.47H593.53V223.47Z" fill="black" stroke="#45759A" stroke-miterlimit="10"/>
<path opacity="0.1" d="M480.53 387.47C498.203 387.47 512.53 373.143 512.53 355.47C512.53 337.797 498.203 323.47 480.53 323.47C462.857 323.47 448.53 337.797 448.53 355.47C448.53 373.143 462.857 387.47 480.53 387.47Z" fill="black" stroke="#45759A" stroke-miterlimit="10"/>
<path d="M471.53 349.47V361.47H479.53L489.53 371.92V339.01L479.53 349.47H471.53Z" fill="white"/>
<path opacity="0.1" d="M565.53 387.47C583.203 387.47 597.53 373.143 597.53 355.47C597.53 337.797 583.203 323.47 565.53 323.47C547.857 323.47 533.53 337.797 533.53 355.47C533.53 373.143 547.857 387.47 565.53 387.47Z" fill="black" stroke="#45759A" stroke-miterlimit="10"/>
<path d="M565.53 368.83C564.774 368.826 564.033 369.047 563.402 369.464C562.771 369.881 562.279 370.477 561.987 371.174C561.694 371.872 561.616 372.641 561.761 373.383C561.906 374.125 562.268 374.808 562.802 375.344C563.335 375.88 564.016 376.246 564.757 376.395C565.499 376.544 566.268 376.47 566.967 376.181C567.666 375.893 568.264 375.403 568.685 374.774C569.105 374.146 569.33 373.406 569.33 372.65C569.33 371.64 568.93 370.672 568.218 369.956C567.506 369.24 566.54 368.835 565.53 368.83ZM554.33 334.47C553.573 334.464 552.832 334.683 552.2 335.099C551.567 335.515 551.073 336.11 550.779 336.807C550.486 337.505 550.406 338.274 550.55 339.017C550.694 339.76 551.055 340.443 551.588 340.98C552.121 341.518 552.802 341.884 553.544 342.034C554.285 342.184 555.055 342.11 555.755 341.822C556.455 341.534 557.053 341.044 557.474 340.415C557.895 339.787 558.12 339.047 558.12 338.29C558.12 337.282 557.722 336.315 557.012 335.599C556.302 334.884 555.338 334.478 554.33 334.47ZM554.33 345.93C553.573 345.924 552.831 346.143 552.199 346.56C551.566 346.976 551.072 347.572 550.779 348.27C550.485 348.968 550.406 349.737 550.55 350.48C550.695 351.224 551.058 351.907 551.592 352.444C552.126 352.981 552.807 353.347 553.55 353.495C554.292 353.644 555.062 353.569 555.762 353.279C556.461 352.989 557.059 352.498 557.479 351.868C557.899 351.238 558.122 350.497 558.12 349.74C558.12 348.733 557.721 347.767 557.011 347.053C556.301 346.339 555.337 345.935 554.33 345.93ZM554.33 357.38C553.573 357.374 552.832 357.593 552.2 358.009C551.567 358.425 551.073 359.02 550.779 359.717C550.486 360.415 550.406 361.184 550.55 361.927C550.694 362.67 551.055 363.353 551.588 363.89C552.121 364.428 552.802 364.794 553.544 364.944C554.285 365.094 555.055 365.02 555.755 364.732C556.455 364.444 557.053 363.954 557.474 363.325C557.895 362.697 558.12 361.957 558.12 361.2C558.12 360.192 557.722 359.225 557.012 358.509C556.302 357.794 555.338 357.388 554.33 357.38ZM576.73 342.11C577.486 342.114 578.227 341.893 578.858 341.476C579.489 341.059 579.981 340.463 580.273 339.766C580.566 339.068 580.644 338.299 580.499 337.557C580.354 336.815 579.992 336.132 579.458 335.596C578.925 335.06 578.244 334.694 577.503 334.545C576.761 334.396 575.992 334.47 575.293 334.759C574.594 335.047 573.996 335.537 573.575 336.166C573.155 336.794 572.93 337.534 572.93 338.29C572.929 338.79 573.026 339.286 573.216 339.749C573.406 340.212 573.686 340.632 574.039 340.987C574.392 341.342 574.811 341.623 575.273 341.816C575.734 342.009 576.23 342.109 576.73 342.11ZM565.53 357.38C564.774 357.376 564.033 357.597 563.402 358.014C562.771 358.431 562.279 359.027 561.987 359.724C561.694 360.422 561.616 361.191 561.761 361.933C561.906 362.675 562.268 363.358 562.802 363.894C563.335 364.43 564.016 364.796 564.757 364.945C565.499 365.094 566.268 365.02 566.967 364.731C567.666 364.443 568.264 363.953 568.685 363.324C569.105 362.696 569.33 361.956 569.33 361.2C569.33 360.19 568.93 359.222 568.218 358.506C567.506 357.79 566.54 357.385 565.53 357.38ZM576.73 357.38C575.974 357.376 575.233 357.597 574.602 358.014C573.971 358.431 573.479 359.027 573.187 359.724C572.894 360.422 572.816 361.191 572.961 361.933C573.106 362.675 573.468 363.358 574.002 363.894C574.535 364.43 575.216 364.796 575.957 364.945C576.699 365.094 577.468 365.02 578.167 364.731C578.866 364.443 579.464 363.953 579.885 363.324C580.305 362.696 580.53 361.956 580.53 361.2C580.53 360.19 580.13 359.222 579.418 358.506C578.706 357.79 577.74 357.385 576.73 357.38ZM576.73 345.93C575.973 345.926 575.232 346.147 574.601 346.565C573.97 346.983 573.477 347.578 573.186 348.277C572.894 348.975 572.816 349.744 572.962 350.487C573.108 351.229 573.471 351.912 574.005 352.448C574.54 352.983 575.221 353.348 575.964 353.496C576.706 353.644 577.475 353.568 578.174 353.278C578.873 352.988 579.47 352.497 579.89 351.867C580.309 351.237 580.532 350.497 580.53 349.74C580.53 348.731 580.13 347.764 579.418 347.049C578.705 346.335 577.739 345.933 576.73 345.93ZM565.53 345.93C564.773 345.926 564.032 346.147 563.401 346.565C562.77 346.983 562.278 347.578 561.986 348.277C561.694 348.975 561.616 349.744 561.762 350.487C561.908 351.229 562.271 351.912 562.805 352.448C563.34 352.983 564.021 353.348 564.764 353.496C565.506 353.644 566.275 353.568 566.974 353.278C567.673 352.988 568.27 352.497 568.69 351.867C569.109 351.237 569.332 350.497 569.33 349.74C569.33 348.731 568.93 347.764 568.218 347.049C567.505 346.335 566.539 345.933 565.53 345.93ZM565.53 334.47C564.774 334.466 564.033 334.687 563.402 335.104C562.771 335.521 562.279 336.117 561.987 336.814C561.694 337.512 561.616 338.281 561.761 339.023C561.906 339.765 562.268 340.448 562.802 340.984C563.335 341.52 564.016 341.886 564.757 342.035C565.499 342.184 566.268 342.11 566.967 341.821C567.666 341.533 568.264 341.043 568.685 340.414C569.105 339.786 569.33 339.046 569.33 338.29C569.33 337.28 568.93 336.312 568.218 335.596C567.506 334.88 566.54 334.475 565.53 334.47Z" fill="white"/>
<g opacity="0.4">
<path opacity="0.1" d="M480.53 483.47C498.203 483.47 512.53 469.143 512.53 451.47C512.53 433.797 498.203 419.47 480.53 419.47C462.857 419.47 448.53 433.797 448.53 451.47C448.53 469.143 462.857 483.47 480.53 483.47Z" fill="black" stroke="#45759A" stroke-miterlimit="10"/>
<path opacity="0.4" d="M495.53 453.47H482.53V466.47H478.53V453.47H465.53V449.47H478.53V436.47H482.53V449.47H495.53V453.47Z" fill="white"/>
</g>
<path opacity="0.1" d="M650.53 387.47C668.203 387.47 682.53 373.143 682.53 355.47C682.53 337.797 668.203 323.47 650.53 323.47C632.857 323.47 618.53 337.797 618.53 355.47C618.53 373.143 632.857 387.47 650.53 387.47Z" fill="black" stroke="#45759A" stroke-miterlimit="10"/>
<path d="M650.53 335.96C648.135 335.991 645.769 336.494 643.568 337.44C641.367 338.386 639.374 339.756 637.702 341.472C636.031 343.188 634.714 345.216 633.826 347.441C632.939 349.666 632.498 352.045 632.53 354.44V368.81C632.519 369.608 632.666 370.401 632.962 371.143C633.258 371.885 633.697 372.561 634.254 373.133C634.811 373.705 635.476 374.161 636.209 374.477C636.943 374.792 637.732 374.96 638.53 374.97H644.53V358.46H636.53V354.46C636.53 350.747 638.005 347.186 640.631 344.561C643.256 341.935 646.817 340.46 650.53 340.46C654.243 340.46 657.804 341.935 660.429 344.561C663.055 347.186 664.53 350.747 664.53 354.46V358.46H656.53V374.96H662.53C663.329 374.951 664.118 374.784 664.852 374.469C665.587 374.155 666.251 373.698 666.809 373.126C667.366 372.553 667.805 371.877 668.101 371.134C668.396 370.392 668.542 369.599 668.53 368.8V354.44C668.562 352.045 668.121 349.666 667.234 347.441C666.346 345.216 665.029 343.188 663.358 341.472C661.686 339.756 659.693 338.386 657.492 337.44C655.291 336.494 652.925 335.991 650.53 335.96Z" fill="white"/>
<g opacity="0.4">
<path opacity="0.1" d="M565.53 483.47C583.203 483.47 597.53 469.143 597.53 451.47C597.53 433.797 583.203 419.47 565.53 419.47C547.857 419.47 533.53 433.797 533.53 451.47C533.53 469.143 547.857 483.47 565.53 483.47Z" fill="black" stroke="#45759A" stroke-miterlimit="10"/>
<path opacity="0.4" d="M577.53 448.04V440.04C577.526 439.737 577.462 439.437 577.343 439.158C577.223 438.88 577.05 438.627 576.832 438.415C576.615 438.204 576.358 438.037 576.076 437.924C575.795 437.812 575.493 437.756 575.19 437.76H546.85C546.239 437.755 545.651 437.992 545.214 438.419C544.777 438.846 544.528 439.429 544.52 440.04V462.85C544.53 463.46 544.781 464.041 545.217 464.468C545.653 464.895 546.24 465.133 546.85 465.13H575.18C575.792 465.135 576.381 464.899 576.819 464.472C577.258 464.045 577.509 463.462 577.52 462.85V454.85L586.52 463.97V438.92L577.53 448.04Z" fill="white"/>
</g>
<path opacity="0.1" d="M650.53 483.47C668.203 483.47 682.53 469.143 682.53 451.47C682.53 433.797 668.203 419.47 650.53 419.47C632.857 419.47 618.53 433.797 618.53 451.47C618.53 469.143 632.857 483.47 650.53 483.47Z" fill="black" stroke="#45759A" stroke-miterlimit="10"/>
<path d="M648.95 459.71C647.229 460.686 645.284 461.2 643.305 461.2C641.326 461.2 639.381 460.686 637.66 459.71C633.24 461.06 630.53 465.53 629.53 469.46H657.08C656.08 465.53 653.38 461.06 648.95 459.71ZM643.31 438.71C641.345 438.708 639.424 439.289 637.789 440.379C636.155 441.47 634.881 443.02 634.128 444.835C633.375 446.65 633.177 448.648 633.56 450.575C633.943 452.502 634.889 454.272 636.278 455.662C637.668 457.051 639.438 457.997 641.365 458.38C643.292 458.763 645.29 458.565 647.105 457.812C648.919 457.059 650.47 455.785 651.561 454.151C652.651 452.516 653.232 450.595 653.23 448.63C653.23 445.999 652.185 443.476 650.324 441.616C648.464 439.755 645.941 438.71 643.31 438.71ZM643.31 456.19C641.817 456.162 640.365 455.699 639.132 454.857C637.899 454.015 636.939 452.83 636.37 451.45H650.24C649.673 452.831 648.715 454.016 647.484 454.86C646.253 455.704 644.802 456.17 643.31 456.2V456.19Z" fill="white"/>
<path d="M656.77 463.46H671.53C671.07 461.384 670.079 459.464 668.654 457.886C667.229 456.309 665.418 455.128 663.4 454.46C661.677 455.436 659.73 455.949 657.75 455.95C656.421 455.962 655.101 455.739 653.85 455.29C653.153 456.514 652.269 457.62 651.23 458.57C653.518 459.618 655.446 461.32 656.77 463.46ZM655.27 446.21H664.69C664.118 447.587 663.157 448.767 661.924 449.605C660.691 450.443 659.241 450.904 657.75 450.93C656.939 450.924 656.134 450.782 655.37 450.51C655.247 451.312 655.042 452.099 654.76 452.86C656.126 453.296 657.57 453.431 658.994 453.255C660.417 453.08 661.785 452.598 663.005 451.844C664.224 451.089 665.265 450.079 666.057 448.884C666.849 447.688 667.373 446.335 667.592 444.918C667.811 443.501 667.721 442.053 667.327 440.674C666.934 439.296 666.246 438.018 665.312 436.93C664.378 435.842 663.219 434.97 661.915 434.373C660.612 433.775 659.194 433.467 657.76 433.47C656.091 433.472 654.449 433.895 652.986 434.699C651.524 435.503 650.287 436.662 649.39 438.07C650.889 438.934 652.189 440.107 653.202 441.51C654.216 442.913 654.921 444.515 655.27 446.21Z" fill="white"/>
<path d="M565.53 611.47C583.203 611.47 597.53 597.143 597.53 579.47C597.53 561.797 583.203 547.47 565.53 547.47C547.857 547.47 533.53 561.797 533.53 579.47C533.53 597.143 547.857 611.47 565.53 611.47Z" fill="#FF6F61"/>
<path d="M549.1 587.37C550.85 585.717 552.843 584.341 555.01 583.29C555.345 583.141 555.629 582.896 555.827 582.587C556.024 582.278 556.126 581.917 556.12 581.55L556.29 575.33C562.405 573.512 568.941 573.687 574.95 575.83L574.78 582.05C574.775 582.411 574.865 582.767 575.04 583.083C575.216 583.399 575.471 583.663 575.78 583.85C577.952 584.981 579.92 586.468 581.6 588.25C581.78 588.441 581.997 588.595 582.237 588.703C582.477 588.81 582.736 588.869 582.998 588.877C583.261 588.884 583.523 588.84 583.769 588.746C584.014 588.652 584.239 588.511 584.43 588.33L589.51 583.51C589.893 583.146 590.117 582.645 590.132 582.116C590.147 581.588 589.952 581.075 589.59 580.69C586.519 577.448 582.84 574.843 578.762 573.023C574.684 571.203 570.288 570.204 565.824 570.083C561.36 569.962 556.917 570.722 552.746 572.319C548.576 573.916 544.761 576.319 541.52 579.39C541.329 579.571 541.176 579.788 541.07 580.028C540.963 580.269 540.905 580.528 540.898 580.79C540.892 581.053 540.937 581.315 541.032 581.56C541.126 581.805 541.269 582.03 541.45 582.22L546.26 587.3C546.441 587.491 546.658 587.644 546.898 587.75C547.139 587.857 547.398 587.915 547.66 587.922C547.923 587.928 548.185 587.883 548.43 587.788C548.675 587.693 548.9 587.551 549.09 587.37H549.1Z" fill="white"/>
<path opacity="0.1" d="M654.53 268.47C668.337 268.47 679.53 257.277 679.53 243.47C679.53 229.663 668.337 218.47 654.53 218.47C640.723 218.47 629.53 229.663 629.53 243.47C629.53 257.277 640.723 268.47 654.53 268.47Z" fill="black" stroke="#45759A" stroke-miterlimit="10"/>
<path d="M660.18 249.08C658.457 250.056 656.51 250.57 654.53 250.57C652.55 250.57 650.603 250.056 648.88 249.08C644.46 250.43 641.75 254.9 640.75 258.84H668.31C667.31 254.9 664.6 250.43 660.18 249.08ZM654.53 228.08C652.566 228.078 650.645 228.659 649.01 229.749C647.376 230.839 646.102 232.389 645.349 234.203C644.596 236.017 644.398 238.014 644.78 239.941C645.162 241.868 646.107 243.638 647.495 245.028C648.883 246.418 650.653 247.365 652.579 247.748C654.506 248.132 656.503 247.936 658.318 247.185C660.133 246.434 661.684 245.161 662.776 243.528C663.867 241.895 664.45 239.974 664.45 238.01C664.447 235.379 663.402 232.856 661.542 230.995C659.683 229.134 657.161 228.085 654.53 228.08ZM654.53 245.57C653.038 245.54 651.587 245.075 650.354 244.234C649.122 243.392 648.161 242.209 647.59 240.83H661.47C660.898 242.209 659.938 243.393 658.706 244.236C657.474 245.079 656.023 245.546 654.53 245.58V245.57Z" fill="white"/>
<path opacity="0.1" d="M404.58 66.39C402.25 65.04 399.1 66.33 397.5 68.5C395.9 70.67 395.5 73.5 395.05 76.13C394.16 82.04 393.51 88.83 397.5 93.29C390.98 73.52 372.23 58.37 351.5 56.16" stroke="#45759A" stroke-width="3" stroke-miterlimit="10"/>
<path opacity="0.1" d="M808.61 392.64C807.11 391.77 805.09 392.64 804.06 394C803.147 395.483 802.605 397.163 802.48 398.9C801.91 402.71 801.48 407.07 804.06 409.9C801.864 403.553 797.93 397.951 792.705 393.731C787.481 389.511 781.176 386.843 774.51 386.03" stroke="#45759A" stroke-width="3" stroke-miterlimit="10"/>
<path opacity="0.1" d="M299.11 263.36C297.61 262.5 295.59 263.36 294.56 264.72C293.646 266.206 293.104 267.89 292.98 269.63C292.41 273.43 291.98 277.79 294.56 280.63C292.362 274.285 288.427 268.683 283.203 264.464C277.979 260.244 271.676 257.575 265.01 256.76" stroke="#45759A" stroke-width="3" stroke-miterlimit="10"/>
<path d="M696.85 730.97C697.85 732.86 699.73 734.02 701.54 735.05C714.116 742.26 727.365 748.225 741.1 752.86C741.442 753.058 741.825 753.177 742.219 753.207C742.613 753.238 743.009 753.179 743.378 753.036C743.746 752.893 744.078 752.669 744.348 752.381C744.619 752.093 744.821 751.747 744.94 751.37C746.52 748.71 748.25 744.37 747.84 740.86C749.14 740.072 750.083 738.81 750.47 737.34C751.011 735.554 751.835 733.866 752.91 732.34C754.78 729.52 757.04 726.69 757.34 723.26C757.314 722.037 757.432 720.816 757.69 719.62C758.22 718.04 759.63 717 760.69 715.74C762.34 713.74 763.13 711.16 763.88 708.65C767 698.22 770.12 687.79 772.72 677.2C773.56 673.77 774.34 670.33 775.49 667C776.49 664.08 777.77 661.28 779.04 658.48C783.582 648.331 788.867 638.532 794.85 629.16C795.786 632.308 796.918 635.394 798.24 638.4C798.92 639.95 799.65 641.48 800.34 643.03C802.95 648.87 802.48 656.37 805.69 661.86C807.023 664.113 808.337 666.363 809.63 668.61C810.364 669.711 810.933 670.914 811.32 672.18C811.53 673.06 811.55 673.98 811.7 674.87C812.38 678.87 815.63 681.69 817.43 685.26C819.08 688.52 819.43 692.26 820.43 695.85C822.8 704.15 828.62 711.36 829.21 720.01C829.284 722.345 829.228 724.682 829.04 727.01C828.891 731.087 829.162 735.169 829.85 739.19C829.905 739.596 830.012 739.992 830.17 740.37C825.047 747.994 817.156 753.324 808.17 755.23C806.47 755.57 804.52 755.93 803.63 757.49C802.56 759.35 803.77 761.91 805.63 762.91C807.49 763.91 809.63 763.81 811.63 763.63C825.977 762.43 840.17 759.81 854 755.81C854.699 755.666 855.339 755.318 855.84 754.81C856.333 754.079 856.549 753.196 856.45 752.32C856.443 749.089 855.69 745.903 854.25 743.01L855.25 742.66C855.81 738.66 853.75 734.79 852.15 731.08C849.37 724.61 847.85 717.62 845.65 710.89C841.41 697.89 834.56 685.76 832.91 672.16C832.46 668.42 831.34 664.62 831.1 660.86C830.62 653.2 830.1 645.5 828.43 638.04C827.03 631.9 824.82 626.04 823.43 619.83C822.04 613.62 821.59 607.09 823.63 601.15C824.21 599.45 824.99 597.84 825.52 596.15C827.52 589.54 825.61 582.38 823.67 575.74C823.057 573.64 822.45 571.547 821.85 569.46C821.04 566.71 820.24 563.95 819.36 561.22C819.48 561.11 819.59 561 819.71 560.87C821.47 558.87 821.45 555.81 822.71 553.42C823.33 552.19 824.27 551.18 824.93 549.98C826.177 547.386 826.498 544.442 825.84 541.64C825.31 538.84 824.25 536.18 823.45 533.45C821.278 525.958 821.112 518.026 822.97 510.45C823.78 507.22 824.97 504.05 825.14 500.72C825.197 498.494 824.993 496.268 824.53 494.09C822.98 485.69 819.94 477.17 813.77 471.62C810.48 468.62 806.03 465.99 805.68 461.43C805.149 461.225 804.564 461.204 804.02 461.37C803.738 460.332 803.551 459.271 803.46 458.2H803.51C803.816 458.235 804.124 458.235 804.43 458.2C804.689 458.183 804.941 458.112 805.17 457.99C805.299 457.913 805.42 457.823 805.53 457.72C805.919 457.321 806.255 456.874 806.53 456.39C806.94 455.71 807.31 454.98 807.62 454.48C807.93 453.98 808.43 453.18 808.82 452.48C809.987 450.48 811.07 448.447 812.07 446.38V446.3C812.17 446.11 812.26 445.91 812.35 445.72L812.47 445.45L812.65 445.04C812.65 444.94 812.74 444.83 812.78 444.73C812.82 444.63 812.89 444.48 812.94 444.35L813.08 444.02C813.13 443.9 813.17 443.78 813.22 443.65C813.269 443.539 813.313 443.426 813.35 443.31C813.4 443.19 813.44 443.07 813.48 442.95C813.52 442.83 813.56 442.72 813.61 442.6C813.66 442.48 813.68 442.36 813.72 442.24L813.84 441.88C813.84 441.76 813.9 441.65 813.94 441.53L814.04 441.16L814.13 440.81L814.22 440.43C814.22 440.32 814.22 440.21 814.29 440.09C814.36 439.97 814.29 439.83 814.36 439.7C814.43 439.57 814.36 439.48 814.36 439.37L814.42 438.98V438.65C814.42 438.51 814.42 438.38 814.42 438.25C814.42 438.12 814.42 438.03 814.42 437.92C814.42 437.81 814.42 437.65 814.42 437.52V437.29C814.42 437.15 814.42 437.02 814.42 436.88C814.42 436.74 814.42 436.68 814.42 436.58C814.42 436.48 814.42 436.3 814.42 436.16C814.42 436.02 814.42 435.97 814.42 435.88C814.372 435.488 814.295 435.1 814.19 434.72C813.516 432.391 812.149 430.322 810.27 428.79C808.453 427.306 806.432 426.09 804.27 425.18C803.744 424.978 803.262 424.675 802.85 424.29C802.369 423.591 801.97 422.84 801.66 422.05C800.78 420.51 799.02 419.82 797.37 419.41C795.72 419 793.95 418.74 792.57 417.69C792.447 417.584 792.304 417.502 792.15 417.45C791.938 417.433 791.726 417.478 791.54 417.58L787.69 419.29C787.651 419.051 787.565 418.822 787.438 418.617C787.31 418.411 787.142 418.233 786.945 418.092C786.748 417.952 786.525 417.852 786.289 417.798C786.053 417.745 785.808 417.739 785.57 417.78C784.621 418.01 783.757 418.506 783.08 419.21C782.963 419.091 782.879 418.943 782.839 418.782C782.798 418.62 782.802 418.45 782.85 418.29L779.85 420.29C779.48 420.53 778.8 420.59 778.85 420.13C777.181 421.953 775.735 423.967 774.54 426.13C774.166 426.791 773.852 427.484 773.6 428.2C773.6 428.35 773.51 428.5 773.47 428.65C773.465 428.68 773.465 428.71 773.47 428.74C773.47 428.87 773.41 429.01 773.39 429.15C773.385 429.19 773.385 429.23 773.39 429.27C773.39 429.44 773.39 429.62 773.39 429.79C773.38 429.983 773.38 430.177 773.39 430.37C773.421 430.926 773.597 431.464 773.901 431.93C774.204 432.397 774.625 432.776 775.12 433.03C775.503 433.172 775.911 433.237 776.32 433.22C777.18 433.118 778.029 432.944 778.86 432.7C779.13 432.634 779.404 432.587 779.68 432.56C779.81 432.55 779.94 432.55 780.07 432.56C780.593 432.548 781.103 432.721 781.51 433.05L781.57 433.11C779.386 434.682 777.61 436.754 776.392 439.153C775.174 441.553 774.549 444.209 774.57 446.9C774.566 449.548 775.168 452.161 776.33 454.54C775.93 454.761 775.601 455.09 775.38 455.49C775.159 455.89 775.055 456.344 775.08 456.8C774.819 456.033 774.68 455.23 774.67 454.42C773.03 454.09 771.84 456.01 771.25 457.66C770.037 461.39 769.098 465.203 768.44 469.07C767.93 471.64 767.44 474.21 766.92 476.78C766.4 479.35 765.92 482.11 765.54 484.78C764.657 491.712 764.971 498.744 766.47 505.57C766.37 505.79 766.28 506.02 766.19 506.24C765.89 507.04 765.04 507.72 764.94 508.57C764.4 513.66 767.62 518.25 770.66 522.24C770.909 522.648 771.252 522.991 771.66 523.24C772.105 523.425 772.592 523.487 773.07 523.42C774.282 523.361 775.49 523.241 776.69 523.06C776.76 523.74 776.84 524.41 776.92 525.06C777.78 532.24 779.25 539.42 779.24 546.65C779.23 553.88 777.86 561.21 780.63 567.65C781.09 568.75 781.98 569.65 782.07 570.79H782.24C780.547 574.241 779.161 577.835 778.1 581.53C777 585.87 776.77 590.43 775.54 594.73C774.49 598.38 772.74 601.73 771.33 605.29C769.034 611.073 767.683 617.188 767.33 623.4C767.292 626.252 766.715 629.072 765.63 631.71C764.013 634.874 762.597 638.137 761.39 641.48C759.39 647.42 756.02 653.05 755.39 659.34C755.04 662.9 755.55 666.7 754.06 669.92C753.48 671.18 752.62 672.27 751.94 673.46C750.947 675.367 750.172 677.38 749.63 679.46L739.73 712.29C739.355 714.094 738.522 715.772 737.31 717.16C736.39 718.04 735.18 718.52 734.31 719.43C732.91 720.85 732.56 722.93 732.55 725.05C731.489 725.242 730.46 725.578 729.49 726.05C725.303 727.839 720.798 728.761 716.245 728.761C711.692 728.761 707.187 727.839 703 726.05C701.4 725.36 699.58 724.54 698 725.33C696.15 726.29 695.85 729.08 696.85 730.97ZM775.72 482.29C776.313 479.572 777.427 476.995 779 474.7C781.24 471.01 783.6 467.36 785.74 463.59L786.35 463C786.52 463.48 786.68 464 786.83 464.45C787.201 465.732 787.498 467.034 787.72 468.35C788.036 469.997 788.13 471.678 788 473.35L787.86 473.46C787.051 473.98 786.398 474.709 785.97 475.57C785.69 476.428 785.69 477.352 785.97 478.21L785.88 478.31L785.98 478.24C786.33 479.62 786.98 481.04 786.77 482.44C786.54 484.13 785.18 485.36 784.33 486.81C782.33 490.3 782.97 495.6 779.68 497.74L779.62 497.88C778.914 497.713 778.256 497.387 777.696 496.926C777.136 496.465 776.689 495.881 776.39 495.22C776.65 490.95 775.05 486.57 775.72 482.29Z" fill="url(#paint0_linear)"/>
<path d="M857.76 752.51C857.866 753.377 857.641 754.252 857.13 754.96C856.598 755.468 855.932 755.815 855.21 755.96C840.771 759.912 825.993 762.497 811.07 763.68C808.93 763.84 806.67 763.96 804.78 762.97C802.89 761.98 801.63 759.45 802.78 757.62C803.71 756.08 805.78 755.72 807.51 755.39C816.875 753.563 825.173 748.189 830.67 740.39C831.327 739.273 832.181 738.283 833.19 737.47C835.11 736.16 837.66 736.47 839.93 736.92C843.93 737.74 849.24 738.71 852.85 740.67C856.46 742.63 857.7 748.68 857.76 752.51Z" fill="#3F3D56"/>
<path opacity="0.1" d="M857.76 752.51C857.866 753.377 857.641 754.252 857.13 754.96C856.598 755.468 855.932 755.815 855.21 755.96C840.771 759.912 825.993 762.497 811.07 763.68C808.93 763.84 806.67 763.96 804.78 762.97C802.89 761.98 801.63 759.45 802.78 757.62C803.71 756.08 805.78 755.72 807.51 755.39C816.875 753.563 825.173 748.189 830.67 740.39C831.327 739.273 832.181 738.283 833.19 737.47C835.11 736.16 837.66 736.47 839.93 736.92C843.93 737.74 849.24 738.71 852.85 740.67C856.46 742.63 857.7 748.68 857.76 752.51Z" fill="black"/>
<path d="M741.55 751.54C741.16 752.324 740.494 752.937 739.68 753.26C738.961 753.381 738.222 753.294 737.55 753.01C723.29 748.458 709.489 742.576 696.33 735.44C694.45 734.44 692.49 733.28 691.44 731.44C690.39 729.6 690.71 726.77 692.64 725.84C694.26 725.06 696.16 725.84 697.82 726.55C706.674 730.12 716.566 730.12 725.42 726.55C726.581 725.968 727.838 725.602 729.13 725.47C731.44 725.42 733.43 727.05 735.13 728.68C738.05 731.55 741.96 735.26 743.92 738.86C745.88 742.46 743.58 748.29 741.55 751.54Z" fill="#3F3D56"/>
<path opacity="0.1" d="M741.55 751.54C741.16 752.324 740.494 752.937 739.68 753.26C738.961 753.381 738.222 753.294 737.55 753.01C723.29 748.458 709.489 742.576 696.33 735.44C694.45 734.44 692.49 733.28 691.44 731.44C690.39 729.6 690.71 726.77 692.64 725.84C694.26 725.06 696.16 725.84 697.82 726.55C706.674 730.12 716.566 730.12 725.42 726.55C726.581 725.968 727.838 725.602 729.13 725.47C731.44 725.42 733.43 727.05 735.13 728.68C738.05 731.55 741.96 735.26 743.92 738.86C745.88 742.46 743.58 748.29 741.55 751.54Z" fill="black"/>
<path d="M817.77 560.04C819.26 564.04 820.51 568.04 821.77 572.04L823.67 578.24C825.67 584.79 827.67 591.85 825.6 598.38C825.05 600.07 824.24 601.66 823.6 603.38C821.48 609.24 821.97 615.75 823.39 621.82C824.81 627.89 827.11 633.72 828.57 639.82C830.34 647.18 830.85 654.82 831.35 662.33C831.6 666.04 832.76 669.79 833.24 673.48C834.96 686.89 842.09 698.91 846.51 711.69C848.8 718.32 850.38 725.21 853.29 731.6C854.95 735.26 857.1 739.05 856.52 743.02C848.39 745.9 839.38 745.85 831.72 741.9C831.238 741.727 830.819 741.411 830.519 740.995C830.219 740.579 830.052 740.083 830.04 739.57C829.337 735.611 829.069 731.587 829.24 727.57C829.432 725.282 829.488 722.985 829.41 720.69C828.8 712.16 822.73 705.05 820.27 696.85C819.27 693.36 818.81 689.63 817.09 686.41C815.21 682.89 811.83 680.08 811.09 676.16C810.93 675.28 810.91 674.38 810.7 673.51C810.289 672.252 809.693 671.062 808.93 669.98L804.85 663.29C801.5 657.87 801.99 650.47 799.28 644.71C798.56 643.18 797.79 641.71 797.08 640.15C795.71 637.188 794.531 634.142 793.55 631.03C787.323 640.226 781.807 649.884 777.05 659.92C775.674 662.658 774.439 665.465 773.35 668.33C772.15 671.61 771.35 675.01 770.46 678.39C767.76 688.84 764.46 699.13 761.25 709.39C760.47 711.87 759.64 714.39 757.93 716.39C756.83 717.63 755.37 718.65 754.81 720.22C754.544 721.394 754.423 722.596 754.45 723.8C754.13 727.19 751.78 729.98 749.83 732.8C748.711 734.313 747.852 736.003 747.29 737.8C747.06 738.605 746.66 739.351 746.117 739.988C745.574 740.626 744.901 741.139 744.143 741.495C743.385 741.85 742.56 742.039 741.722 742.048C740.885 742.058 740.056 741.888 739.29 741.55H739.21C738.417 741.155 737.655 740.7 736.93 740.19C735.037 739.001 733.241 737.664 731.56 736.19C730.073 734.754 728.733 733.173 727.56 731.47C727.358 731.18 727.227 730.847 727.176 730.497C727.125 730.148 727.156 729.791 727.267 729.456C727.378 729.12 727.564 728.815 727.813 728.564C728.062 728.313 728.365 728.123 728.7 728.01C728.49 725.23 728.43 722.06 730.43 720.14C731.36 719.24 732.62 718.76 733.58 717.9C734.83 716.551 735.699 714.895 736.1 713.1C739.513 702.353 742.92 691.607 746.32 680.86C746.888 678.793 747.697 676.799 748.73 674.92C749.44 673.74 750.33 672.67 750.94 671.43C752.49 668.25 751.94 664.51 752.32 660.99C752.97 654.78 756.45 649.24 758.56 643.38C759.822 640.071 761.299 636.847 762.98 633.73C764.11 631.145 764.712 628.361 764.75 625.54C765.12 619.392 766.527 613.35 768.91 607.67C770.37 604.19 772.2 600.86 773.29 597.25C774.58 593.01 774.81 588.51 775.97 584.25C777.084 580.578 778.533 577.016 780.3 573.61C781.75 570.61 783.24 567.54 785.63 565.21C789.55 561.39 795.32 560.14 800.79 559.97C806.26 559.8 812.32 560.61 817.77 560.04Z" fill="#3F3D56"/>
<path d="M784.2 482.16C791.24 478 798.203 473.707 805.09 469.28C803.442 467.058 802.529 464.376 802.48 461.61C802.48 461.5 802.48 461.39 802.48 461.28C802.38 458.59 803.4 456.28 800.01 456.63C796.754 457.05 793.534 457.719 790.38 458.63C789.48 458.86 781.68 461.73 781.38 461.44C783.119 463.502 784.403 465.908 785.15 468.5C785.534 469.764 785.845 471.05 786.08 472.35C786.76 475.79 786.79 479.83 784.2 482.16Z" fill="#A0616A"/>
<path d="M774.75 528.29C775.65 535.37 777.18 542.46 777.17 549.58C777.16 556.7 775.73 563.95 778.62 570.33C779.1 571.41 780.02 572.25 780.12 573.43C784.12 574.12 788.02 572.25 791.83 570.9C795.324 569.676 798.948 568.864 802.63 568.48C805.63 568.18 808.71 568.16 811.69 567.59C814.66 567.125 817.403 565.724 819.52 563.59C821.35 561.59 821.33 558.59 822.61 556.24C823.26 555.03 824.24 554.04 824.93 552.85C826.22 550.308 826.553 547.387 825.87 544.62C825.177 541.886 824.346 539.19 823.38 536.54C821.112 529.173 820.939 521.32 822.88 513.86C823.72 510.67 824.94 507.54 825.14 504.25C825.2 502.052 824.988 499.856 824.51 497.71C822.89 489.43 819.72 481.02 813.3 475.55C809.87 472.62 805.23 469.99 804.87 465.55C803.39 464.97 801.8 465.96 800.53 466.9L786.27 477.41C785.424 477.909 784.732 478.633 784.27 479.5C783.38 481.63 785.43 483.97 785.1 486.27C784.86 487.94 783.44 489.15 782.56 490.59C780.46 494.02 781.14 499.25 777.71 501.36C777.4 502 777.11 502.66 776.85 503.36C775.625 506.855 774.803 510.478 774.4 514.16C773.922 518.866 774.039 523.614 774.75 528.29Z" fill="#3F3D56"/>
<path opacity="0.1" d="M781.42 461.46C783.159 463.522 784.443 465.928 785.19 468.52C786.326 468.774 787.486 468.901 788.65 468.9C794.47 468.9 798.37 462.23 801.26 457.65C801.17 454.96 803.4 456.3 800.01 456.65C796.754 457.07 793.534 457.739 790.38 458.65C789.48 458.88 781.68 461.75 781.42 461.46Z" fill="black"/>
<path d="M788.65 467.53C797.685 467.53 805.01 460.205 805.01 451.17C805.01 442.135 797.685 434.81 788.65 434.81C779.615 434.81 772.29 442.135 772.29 451.17C772.29 460.205 779.615 467.53 788.65 467.53Z" fill="#A0616A"/>
<path d="M776.135 462.754L779.917 466.898C781.156 468.256 783.263 468.352 784.621 467.112L797.325 455.516C798.683 454.276 798.779 452.17 797.539 450.812L793.757 446.668C792.517 445.31 790.411 445.214 789.052 446.454L776.349 458.05C774.991 459.29 774.895 461.396 776.135 462.754Z" fill="#3F3D56"/>
<path opacity="0.1" d="M776.135 462.754L779.917 466.898C781.156 468.256 783.263 468.352 784.621 467.112L797.325 455.516C798.683 454.276 798.779 452.17 797.539 450.812L793.757 446.668C792.517 445.31 790.411 445.214 789.052 446.454L776.349 458.05C774.991 459.29 774.895 461.396 776.135 462.754Z" fill="black"/>
<path d="M789.67 455.6C790.421 455.6 791.03 454.991 791.03 454.24C791.03 453.489 790.421 452.88 789.67 452.88C788.919 452.88 788.31 453.489 788.31 454.24C788.31 454.991 788.919 455.6 789.67 455.6Z" fill="white"/>
<path opacity="0.1" d="M774.75 528.29C787.37 526.43 798.83 518.85 807.6 509.45C809.239 507.903 810.508 506.006 811.31 503.9C811.751 502.14 811.903 500.319 811.76 498.51L811.55 491.29C811.46 488.13 811.33 484.85 809.8 482.09C808.27 479.33 804.86 477.34 801.92 478.49C794.19 481.49 789.16 488.35 784.74 495.37C783.476 497.558 782.097 499.677 780.61 501.72C779.86 502.67 778.84 503.64 777.61 503.51C777.35 503.487 777.097 503.419 776.86 503.31C775.635 506.805 774.813 510.428 774.41 514.11C773.924 518.832 774.038 523.597 774.75 528.29Z" fill="black"/>
<path d="M773.62 486.13C774.247 483.426 775.41 480.876 777.04 478.63C781.93 470.98 787.43 463.51 790.04 454.8C786.23 455.49 785.63 462.05 781.77 462.34L782.07 457.61C782.07 456.81 782.07 455.84 781.42 455.42C780.77 455 779.61 455.55 779.18 456.34C778.75 457.13 778.66 458.09 778.26 458.9C777.86 459.71 776.92 460.43 776.09 460.07L775.75 458.5C775.393 458.425 775.024 458.433 774.671 458.522C774.317 458.611 773.989 458.78 773.71 459.015C773.431 459.25 773.21 459.546 773.063 459.88C772.916 460.213 772.846 460.576 772.86 460.94C772.587 460.186 772.442 459.392 772.43 458.59C770.72 458.27 769.48 460.16 768.87 461.79C767.604 465.459 766.621 469.22 765.93 473.04L764.36 480.65C763.81 483.28 763.27 485.91 762.91 488.56C761.968 495.594 762.341 502.742 764.01 509.64C766.106 508.478 768.139 507.206 770.1 505.83C771.61 504.55 773.3 503.1 773.87 501.15C775.28 496.23 772.79 491.08 773.62 486.13Z" fill="#A0616A"/>
<path d="M801.92 476.45C804.86 475.3 808.27 477.29 809.8 480.05C811.33 482.81 811.46 486.05 811.55 489.25L811.75 496.49C811.901 498.299 811.752 500.12 811.31 501.88C810.505 503.982 809.241 505.879 807.61 507.43C797.91 517.82 784.94 525.97 770.74 526.66C770.243 526.726 769.737 526.664 769.27 526.48C768.866 526.225 768.525 525.884 768.27 525.48C765.1 521.54 761.75 517.01 762.27 511.99C762.36 511.15 763.27 510.47 763.57 509.69C765.475 505.145 768.969 501.448 773.4 499.29L774.26 498.89C774.591 499.552 775.065 500.132 775.648 500.589C776.231 501.045 776.908 501.367 777.63 501.53C778.83 501.65 779.86 500.69 780.63 499.74C782.117 497.694 783.496 495.571 784.76 493.38C789.16 486.29 794.2 479.46 801.92 476.45Z" fill="#3F3D56"/>
<path d="M800.91 461.87C799.52 461.15 799.3 459.3 799.16 457.74C799.004 455.924 798.727 454.119 798.33 452.34C797.9 450.34 797.19 448.28 795.49 447.22C794.893 446.851 794.212 446.639 793.511 446.604C792.81 446.57 792.112 446.713 791.482 447.022C790.851 447.331 790.309 447.794 789.907 448.369C789.504 448.944 789.254 449.612 789.18 450.31C789.2 450.643 789.101 450.973 788.9 451.24C788.766 451.366 788.6 451.452 788.42 451.49C787.635 451.67 786.812 451.55 786.11 451.154C785.409 450.758 784.881 450.115 784.63 449.35C784.34 448.35 784.56 447.06 783.85 446.24C783.14 445.42 782.3 445.44 781.61 444.9C781.192 444.487 780.873 443.984 780.678 443.43C780.482 442.875 780.414 442.284 780.48 441.7C780.48 440.21 780.68 438.43 779.48 437.51C777.67 436.1 774.95 438.34 772.82 437.51C772.23 437.223 771.74 436.766 771.414 436.197C771.088 435.628 770.94 434.974 770.99 434.32C771.113 433.011 771.56 431.753 772.29 430.66C773.542 428.516 775.05 426.531 776.78 424.75C776.78 425.19 777.47 425.14 777.85 424.9L781.01 422.98C780.957 423.139 780.953 423.311 780.997 423.473C781.042 423.635 781.133 423.78 781.26 423.89C781.978 423.194 782.874 422.709 783.85 422.49C784.34 422.399 784.847 422.504 785.26 422.782C785.674 423.061 785.961 423.491 786.06 423.98L790.06 422.25C790.222 422.138 790.419 422.088 790.615 422.108C790.811 422.128 790.994 422.218 791.13 422.36C792.57 423.36 794.41 423.65 796.13 424.05C797.85 424.45 799.68 425.14 800.6 426.66C800.929 427.44 801.348 428.178 801.85 428.86C802.293 429.249 802.805 429.551 803.36 429.75C805.614 430.636 807.734 431.831 809.66 433.3C811.592 434.787 813.02 436.833 813.75 439.16C814.83 443.05 813.27 447.16 811.46 450.75C810.079 453.493 808.53 456.148 806.82 458.7C806.18 459.7 805.3 461.59 804.27 462.17C803.151 462.482 801.956 462.375 800.91 461.87Z" fill="#3F3D56"/>
<path opacity="0.1" d="M772.85 433.43C774.98 434.25 777.7 432.01 779.51 433.43C780.68 434.35 780.51 436.13 780.51 437.62C780.444 438.204 780.512 438.795 780.708 439.35C780.903 439.904 781.222 440.407 781.64 440.82C782.33 441.36 783.31 441.49 783.88 442.16C784.45 442.83 784.37 444.23 784.66 445.27C784.911 446.035 785.439 446.678 786.14 447.074C786.841 447.47 787.665 447.59 788.45 447.41C788.63 447.372 788.796 447.286 788.93 447.16C789.131 446.893 789.23 446.563 789.21 446.23C789.284 445.532 789.534 444.864 789.937 444.289C790.339 443.714 790.881 443.251 791.512 442.942C792.142 442.633 792.84 442.49 793.541 442.524C794.242 442.559 794.923 442.771 795.52 443.14C797.22 444.2 797.93 446.3 798.36 448.26C798.757 450.039 799.034 451.844 799.19 453.66C799.33 455.22 799.55 457.07 800.94 457.79C802.004 458.31 803.222 458.417 804.36 458.09C805.36 457.51 806.27 455.59 806.91 454.62C808.621 452.052 810.171 449.38 811.55 446.62C812.698 444.486 813.527 442.195 814.01 439.82C814.73 443.5 813.25 447.32 811.55 450.71C810.169 453.453 808.62 456.109 806.91 458.66C806.27 459.66 805.39 461.55 804.36 462.13C803.222 462.457 802.004 462.35 800.94 461.83C799.55 461.11 799.33 459.26 799.19 457.7C799.034 455.884 798.757 454.08 798.36 452.3C797.93 450.3 797.22 448.24 795.52 447.18C794.923 446.811 794.242 446.599 793.541 446.564C792.84 446.53 792.142 446.673 791.512 446.982C790.881 447.291 790.339 447.754 789.937 448.329C789.534 448.904 789.284 449.572 789.21 450.27C789.23 450.603 789.131 450.933 788.93 451.2C788.796 451.326 788.63 451.412 788.45 451.45C787.665 451.63 786.841 451.51 786.14 451.114C785.439 450.718 784.911 450.075 784.66 449.31C784.37 448.31 784.59 447.02 783.88 446.2C783.17 445.38 782.33 445.4 781.64 444.86C781.222 444.447 780.903 443.944 780.708 443.39C780.512 442.836 780.444 442.244 780.51 441.66C780.51 440.17 780.71 438.39 779.51 437.47C777.7 436.06 774.98 438.3 772.85 437.47C772.26 437.183 771.77 436.726 771.444 436.157C771.118 435.588 770.97 434.934 771.02 434.28C771.055 433.558 771.225 432.85 771.52 432.19C771.807 432.744 772.277 433.182 772.85 433.43Z" fill="black"/>
</g>
<defs>
<linearGradient id="paint0_linear" x1="776.38" y1="763.75" x2="776.38" y2="417.43" gradientUnits="userSpaceOnUse">
<stop stop-color="#808080" stop-opacity="0.25"/>
<stop offset="0.54" stop-color="#808080" stop-opacity="0.12"/>
<stop offset="1" stop-color="#808080" stop-opacity="0.1"/>
</linearGradient>
<clipPath id="clip0">
<rect width="1145.7" height="770.58" fill="white"/>
</clipPath>
</defs>
</svg>
